# xmcd
#
# Track frame offsets: 
#        150
#        25188
#        92404
#        99652
#        119872
#        132074
#        154854
#        161935
#        181502
#        190661
#        214269
#        228806
#        241143
#        256806
#        267142
#
# Disc length: 3913 seconds
#
# Revision: 0
# Processed by: cddbd v1.5.2PL0 Copyright (c) Steve Scherf et al.
# Submitted via: ExactAudioCopy v0.95b3
#
DISCID=be0f470f
DTITLE=The Rolling Stones  - The Satanic Sessions Vol 1 [3 of 4]
DYEAR=1900
DGENRE=
TTITLE0=Child Of The Moon
TTITLE1=Sing This All Together
TTITLE2=Sing This All Together
TTITLE3=The Lantern
TTITLE4=The Lantern
TTITLE5=The Lantern
TTITLE6=The Lantern
TTITLE7=Majesties Honky Tonk
TTITLE8=The Lantern
TTITLE9=The Lantern
TTITLE10=The Lantern
TTITLE11=The Lantern
TTITLE12=On With The Show
TTITLE13=On With The Show
TTITLE14=On With The Show
EXTD=
EXTT0=
EXTT1=
EXTT2=
EXTT3=
EXTT4=
EXTT5=
EXTT6=
EXTT7=
EXTT8=
EXTT9=
EXTT10=
EXTT11=
EXTT12=
EXTT13=
EXTT14=
PLAYORDER=
